<mxfile host="app.diagrams.net" modified="2022-07-31T08:17:14.182Z" agent="5.0 (Macintosh; Intel Mac OS X 10_15_7) AppleWebKit/537.36 (KHTML, like Gecko) Chrome/103.0.0.0 Safari/537.36" etag="Qx4P6BX7yKIzJPV6Jqfe" version="20.2.0" type="github" pages="10">
  <diagram id="DqmnmwJtcrJ_0jq9ARu_" name="注册初版">
    <mxGraphModel dx="1234" dy="651" grid="1" gridSize="10" guides="1" tooltips="1" connect="1" arrows="1" fold="1" page="1" pageScale="1" pageWidth="827" pageHeight="1169" math="0" shadow="0">
      <root>
        <mxCell id="0" />
        <mxCell id="1" parent="0" />
        <mxCell id="XK8xTgxEN3lTsWGQXHhL-1" style="rounded=0;orthogonalLoop=1;jettySize=auto;html=1;entryX=1;entryY=0.5;entryDx=0;entryDy=0;fontSize=24;startArrow=none;" edge="1" parent="1" source="XK8xTgxEN3lTsWGQXHhL-4" target="sNSduontv3Xc7iz9Qk41-2">
          <mxGeometry relative="1" as="geometry">
            <mxPoint x="480" y="485" as="sourcePoint" />
          </mxGeometry>
        </mxCell>
        <mxCell id="XK8xTgxEN3lTsWGQXHhL-5" value="" style="rounded=0;orthogonalLoop=1;jettySize=auto;html=1;fontSize=24;entryX=0;entryY=0.5;entryDx=0;entryDy=0;" edge="1" parent="1" source="sNSduontv3Xc7iz9Qk41-1" target="XK8xTgxEN3lTsWGQXHhL-6">
          <mxGeometry relative="1" as="geometry">
            <mxPoint x="270" y="310" as="targetPoint" />
          </mxGeometry>
        </mxCell>
        <mxCell id="sNSduontv3Xc7iz9Qk41-1" value="&lt;font style=&quot;font-size: 18px;&quot;&gt;开始&lt;/font&gt;" style="ellipse;whiteSpace=wrap;html=1;fillColor=#d5e8d4;strokeColor=#82b366;" vertex="1" parent="1">
          <mxGeometry x="80" y="270" width="120" height="80" as="geometry" />
        </mxCell>
        <mxCell id="sNSduontv3Xc7iz9Qk41-2" value="写入数据库" style="rounded=1;whiteSpace=wrap;html=1;fontSize=18;fillColor=#ffe6cc;strokeColor=#d79b00;" vertex="1" parent="1">
          <mxGeometry x="470" y="455" width="130" height="60" as="geometry" />
        </mxCell>
        <mxCell id="XK8xTgxEN3lTsWGQXHhL-8" value="" style="edgeStyle=none;rounded=0;orthogonalLoop=1;jettySize=auto;html=1;fontSize=24;exitX=0.5;exitY=1;exitDx=0;exitDy=0;" edge="1" parent="1" source="XK8xTgxEN3lTsWGQXHhL-9">
          <mxGeometry relative="1" as="geometry">
            <mxPoint x="740" y="360" as="sourcePoint" />
            <mxPoint x="735" y="440" as="targetPoint" />
          </mxGeometry>
        </mxCell>
        <mxCell id="XK8xTgxEN3lTsWGQXHhL-4" value="验证&lt;br&gt;用户名" style="rhombus;whiteSpace=wrap;html=1;fillColor=#dae8fc;strokeColor=#6c8ebf;fontSize=18;" vertex="1" parent="1">
          <mxGeometry x="680" y="440" width="110" height="90" as="geometry" />
        </mxCell>
        <mxCell id="XK8xTgxEN3lTsWGQXHhL-6" value="获取用户&lt;br style=&quot;font-size: 18px;&quot;&gt;注册信息" style="rounded=1;whiteSpace=wrap;html=1;fontSize=18;fillColor=#ffe6cc;strokeColor=#d79b00;" vertex="1" parent="1">
          <mxGeometry x="270" y="280" width="150" height="60" as="geometry" />
        </mxCell>
        <mxCell id="XK8xTgxEN3lTsWGQXHhL-9" value="验证&lt;br&gt;手机号长度" style="rhombus;whiteSpace=wrap;html=1;fillColor=#dae8fc;strokeColor=#6c8ebf;fontSize=18;" vertex="1" parent="1">
          <mxGeometry x="670" y="265" width="130" height="90" as="geometry" />
        </mxCell>
        <mxCell id="XK8xTgxEN3lTsWGQXHhL-10" value="验证&lt;br&gt;密码长度" style="rhombus;whiteSpace=wrap;html=1;fillColor=#dae8fc;strokeColor=#6c8ebf;fontSize=18;" vertex="1" parent="1">
          <mxGeometry x="490" y="265" width="110" height="90" as="geometry" />
        </mxCell>
        <mxCell id="XK8xTgxEN3lTsWGQXHhL-11" value="" style="rounded=0;orthogonalLoop=1;jettySize=auto;html=1;fontSize=24;entryX=0;entryY=0.5;entryDx=0;entryDy=0;" edge="1" parent="1">
          <mxGeometry relative="1" as="geometry">
            <mxPoint x="420" y="309.5" as="sourcePoint" />
            <mxPoint x="490" y="309.5" as="targetPoint" />
          </mxGeometry>
        </mxCell>
        <mxCell id="XK8xTgxEN3lTsWGQXHhL-12" value="" style="rounded=0;orthogonalLoop=1;jettySize=auto;html=1;fontSize=24;entryX=0;entryY=0.5;entryDx=0;entryDy=0;" edge="1" parent="1">
          <mxGeometry relative="1" as="geometry">
            <mxPoint x="600" y="309.5" as="sourcePoint" />
            <mxPoint x="670" y="309.5" as="targetPoint" />
          </mxGeometry>
        </mxCell>
        <mxCell id="XK8xTgxEN3lTsWGQXHhL-15" value="&lt;font style=&quot;font-size: 18px;&quot;&gt;结束&lt;/font&gt;" style="ellipse;whiteSpace=wrap;html=1;fillColor=#d5e8d4;strokeColor=#82b366;" vertex="1" parent="1">
          <mxGeometry x="270" y="440" width="120" height="80" as="geometry" />
        </mxCell>
        <mxCell id="XK8xTgxEN3lTsWGQXHhL-16" style="rounded=0;orthogonalLoop=1;jettySize=auto;html=1;entryX=1;entryY=0.5;entryDx=0;entryDy=0;fontSize=24;startArrow=none;" edge="1" parent="1">
          <mxGeometry relative="1" as="geometry">
            <mxPoint x="470" y="479.5" as="sourcePoint" />
            <mxPoint x="390" y="479.5" as="targetPoint" />
          </mxGeometry>
        </mxCell>
      </root>
    </mxGraphModel>
  </diagram>
  <diagram name="1.注册" id="E9MCczMeI2R_NMxadU1-">
    <mxGraphModel dx="1234" dy="651" grid="1" gridSize="10" guides="1" tooltips="1" connect="1" arrows="1" fold="1" page="1" pageScale="1" pageWidth="827" pageHeight="1169" math="0" shadow="0">
      <root>
        <mxCell id="4IhwP2MXJi2rttoGUZHQ-0" />
        <mxCell id="4IhwP2MXJi2rttoGUZHQ-1" parent="4IhwP2MXJi2rttoGUZHQ-0" />
        <mxCell id="4IhwP2MXJi2rttoGUZHQ-5" value="写入&lt;br&gt;数据库" style="rounded=1;whiteSpace=wrap;html=1;fontSize=18;fillColor=#ffe6cc;strokeColor=#d79b00;" vertex="1" parent="4IhwP2MXJi2rttoGUZHQ-1">
          <mxGeometry x="738" y="305" width="102" height="60" as="geometry" />
        </mxCell>
        <mxCell id="FDvoErGHFsKSQuCjrQXK-3" style="edgeStyle=none;rounded=0;sketch=0;orthogonalLoop=1;jettySize=auto;html=1;exitX=0.5;exitY=1;exitDx=0;exitDy=0;entryX=1;entryY=0.5;entryDx=0;entryDy=0;fontSize=16;strokeWidth=2;" edge="1" parent="4IhwP2MXJi2rttoGUZHQ-1" source="4IhwP2MXJi2rttoGUZHQ-7" target="FDvoErGHFsKSQuCjrQXK-0">
          <mxGeometry relative="1" as="geometry">
            <Array as="points">
              <mxPoint x="635" y="470" />
            </Array>
          </mxGeometry>
        </mxCell>
        <mxCell id="4IhwP2MXJi2rttoGUZHQ-7" value="验证&lt;br&gt;用户名" style="rhombus;whiteSpace=wrap;html=1;fillColor=#dae8fc;strokeColor=#6c8ebf;fontSize=18;" vertex="1" parent="4IhwP2MXJi2rttoGUZHQ-1">
          <mxGeometry x="580" y="290" width="110" height="90" as="geometry" />
        </mxCell>
        <mxCell id="4IhwP2MXJi2rttoGUZHQ-8" value="获取用户&lt;br style=&quot;font-size: 18px;&quot;&gt;注册信息" style="rounded=1;whiteSpace=wrap;html=1;fontSize=18;fillColor=#ffe6cc;strokeColor=#d79b00;" vertex="1" parent="4IhwP2MXJi2rttoGUZHQ-1">
          <mxGeometry x="70" y="305" width="120" height="60" as="geometry" />
        </mxCell>
        <mxCell id="FDvoErGHFsKSQuCjrQXK-2" style="edgeStyle=none;rounded=0;sketch=0;orthogonalLoop=1;jettySize=auto;html=1;exitX=0.5;exitY=1;exitDx=0;exitDy=0;entryX=0.5;entryY=0;entryDx=0;entryDy=0;fontSize=16;strokeWidth=2;" edge="1" parent="4IhwP2MXJi2rttoGUZHQ-1" source="4IhwP2MXJi2rttoGUZHQ-9" target="FDvoErGHFsKSQuCjrQXK-0">
          <mxGeometry relative="1" as="geometry" />
        </mxCell>
        <mxCell id="4IhwP2MXJi2rttoGUZHQ-9" value="验证&lt;br&gt;手机号长度" style="rhombus;whiteSpace=wrap;html=1;fillColor=#dae8fc;strokeColor=#6c8ebf;fontSize=18;" vertex="1" parent="4IhwP2MXJi2rttoGUZHQ-1">
          <mxGeometry x="400" y="290" width="130" height="90" as="geometry" />
        </mxCell>
        <mxCell id="FDvoErGHFsKSQuCjrQXK-1" style="edgeStyle=none;sketch=0;orthogonalLoop=1;jettySize=auto;html=1;exitX=0.5;exitY=1;exitDx=0;exitDy=0;entryX=0;entryY=0.5;entryDx=0;entryDy=0;fontSize=16;strokeWidth=2;rounded=0;" edge="1" parent="4IhwP2MXJi2rttoGUZHQ-1" source="4IhwP2MXJi2rttoGUZHQ-10" target="FDvoErGHFsKSQuCjrQXK-0">
          <mxGeometry relative="1" as="geometry">
            <Array as="points">
              <mxPoint x="295" y="470" />
            </Array>
          </mxGeometry>
        </mxCell>
        <mxCell id="4IhwP2MXJi2rttoGUZHQ-10" value="验证&lt;br&gt;密码长度" style="rhombus;whiteSpace=wrap;html=1;fillColor=#dae8fc;strokeColor=#6c8ebf;fontSize=18;" vertex="1" parent="4IhwP2MXJi2rttoGUZHQ-1">
          <mxGeometry x="240" y="290" width="110" height="90" as="geometry" />
        </mxCell>
        <mxCell id="4IhwP2MXJi2rttoGUZHQ-11" value="" style="rounded=0;orthogonalLoop=1;jettySize=auto;html=1;fontSize=24;strokeWidth=2;" edge="1" parent="4IhwP2MXJi2rttoGUZHQ-1">
          <mxGeometry relative="1" as="geometry">
            <mxPoint x="190" y="334.5" as="sourcePoint" />
            <mxPoint x="240" y="335" as="targetPoint" />
          </mxGeometry>
        </mxCell>
        <mxCell id="nO26Chs3iQmCTKm9pckF-0" value="" style="rounded=0;orthogonalLoop=1;jettySize=auto;html=1;fontSize=24;strokeWidth=2;" edge="1" parent="4IhwP2MXJi2rttoGUZHQ-1">
          <mxGeometry relative="1" as="geometry">
            <mxPoint x="350" y="335.5" as="sourcePoint" />
            <mxPoint x="400" y="336" as="targetPoint" />
          </mxGeometry>
        </mxCell>
        <mxCell id="nO26Chs3iQmCTKm9pckF-1" value="" style="rounded=0;orthogonalLoop=1;jettySize=auto;html=1;fontSize=24;strokeWidth=2;" edge="1" parent="4IhwP2MXJi2rttoGUZHQ-1">
          <mxGeometry relative="1" as="geometry">
            <mxPoint x="530" y="335.5" as="sourcePoint" />
            <mxPoint x="580" y="336" as="targetPoint" />
          </mxGeometry>
        </mxCell>
        <mxCell id="nO26Chs3iQmCTKm9pckF-2" value="" style="rounded=0;orthogonalLoop=1;jettySize=auto;html=1;fontSize=24;strokeWidth=2;" edge="1" parent="4IhwP2MXJi2rttoGUZHQ-1">
          <mxGeometry relative="1" as="geometry">
            <mxPoint x="689" y="335.5" as="sourcePoint" />
            <mxPoint x="739" y="336" as="targetPoint" />
          </mxGeometry>
        </mxCell>
        <mxCell id="nO26Chs3iQmCTKm9pckF-4" style="edgeStyle=none;rounded=0;sketch=1;orthogonalLoop=1;jettySize=auto;html=1;exitX=0;exitY=0.5;exitDx=0;exitDy=0;fontSize=18;strokeWidth=2;" edge="1" parent="4IhwP2MXJi2rttoGUZHQ-1" source="4IhwP2MXJi2rttoGUZHQ-9" target="4IhwP2MXJi2rttoGUZHQ-9">
          <mxGeometry relative="1" as="geometry" />
        </mxCell>
        <mxCell id="b1phf720Gf0hIBlWV181-0" value="返回&lt;br&gt;用户信息" style="whiteSpace=wrap;html=1;fontSize=18;fillColor=#ffe6cc;strokeColor=#d79b00;rounded=1;" vertex="1" parent="4IhwP2MXJi2rttoGUZHQ-1">
          <mxGeometry x="890" y="305" width="102" height="60" as="geometry" />
        </mxCell>
        <mxCell id="b1phf720Gf0hIBlWV181-1" value="" style="rounded=0;orthogonalLoop=1;jettySize=auto;html=1;fontSize=24;strokeWidth=2;" edge="1" parent="4IhwP2MXJi2rttoGUZHQ-1">
          <mxGeometry relative="1" as="geometry">
            <mxPoint x="840" y="336.5" as="sourcePoint" />
            <mxPoint x="890" y="337" as="targetPoint" />
          </mxGeometry>
        </mxCell>
        <mxCell id="FDvoErGHFsKSQuCjrQXK-0" value="返回&lt;br&gt;失败信息" style="whiteSpace=wrap;html=1;fontSize=18;fillColor=#ffe6cc;strokeColor=#d79b00;rounded=1;" vertex="1" parent="4IhwP2MXJi2rttoGUZHQ-1">
          <mxGeometry x="414" y="440" width="102" height="60" as="geometry" />
        </mxCell>
      </root>
    </mxGraphModel>
  </diagram>
  <diagram name="2.登陆" id="h0z39dTObWQl-D7Al1b8">
    <mxGraphModel dx="1234" dy="651" grid="1" gridSize="10" guides="1" tooltips="1" connect="1" arrows="1" fold="1" page="1" pageScale="1" pageWidth="827" pageHeight="1169" math="0" shadow="0">
      <root>
        <mxCell id="sDLEGKdLmnnUkzIvG1MP-0" />
        <mxCell id="sDLEGKdLmnnUkzIvG1MP-1" parent="sDLEGKdLmnnUkzIvG1MP-0" />
        <mxCell id="sDLEGKdLmnnUkzIvG1MP-2" value="查询&lt;br&gt;密码缓存" style="rounded=1;whiteSpace=wrap;html=1;fontSize=18;fillColor=#ffe6cc;strokeColor=#d79b00;" vertex="1" parent="sDLEGKdLmnnUkzIvG1MP-1">
          <mxGeometry x="555" y="305" width="110" height="60" as="geometry" />
        </mxCell>
        <mxCell id="Zv4ebzrEuNpnjDvNv9R5-1" style="edgeStyle=none;rounded=0;sketch=0;orthogonalLoop=1;jettySize=auto;html=1;entryX=0.5;entryY=1;entryDx=0;entryDy=0;fontSize=16;strokeWidth=2;" edge="1" parent="sDLEGKdLmnnUkzIvG1MP-1" source="sDLEGKdLmnnUkzIvG1MP-3" target="Zv4ebzrEuNpnjDvNv9R5-0">
          <mxGeometry relative="1" as="geometry" />
        </mxCell>
        <mxCell id="sDLEGKdLmnnUkzIvG1MP-3" value="验证&lt;br&gt;用户名" style="rhombus;whiteSpace=wrap;html=1;fillColor=#dae8fc;strokeColor=#6c8ebf;fontSize=18;" vertex="1" parent="sDLEGKdLmnnUkzIvG1MP-1">
          <mxGeometry x="397" y="290" width="110" height="90" as="geometry" />
        </mxCell>
        <mxCell id="sDLEGKdLmnnUkzIvG1MP-4" value="获取用户&lt;br style=&quot;font-size: 18px;&quot;&gt;登陆信息" style="rounded=1;whiteSpace=wrap;html=1;fontSize=18;fillColor=#ffe6cc;strokeColor=#d79b00;" vertex="1" parent="sDLEGKdLmnnUkzIvG1MP-1">
          <mxGeometry x="70" y="305" width="120" height="60" as="geometry" />
        </mxCell>
        <mxCell id="QUI_lZ44UKBDEoydIOSQ-0" style="edgeStyle=none;rounded=0;sketch=0;orthogonalLoop=1;jettySize=auto;html=1;exitX=0.5;exitY=0;exitDx=0;exitDy=0;entryX=0;entryY=0.5;entryDx=0;entryDy=0;fontSize=16;strokeWidth=2;" edge="1" parent="sDLEGKdLmnnUkzIvG1MP-1" source="sDLEGKdLmnnUkzIvG1MP-6" target="Zv4ebzrEuNpnjDvNv9R5-0">
          <mxGeometry relative="1" as="geometry">
            <Array as="points">
              <mxPoint x="295" y="200" />
            </Array>
          </mxGeometry>
        </mxCell>
        <mxCell id="sDLEGKdLmnnUkzIvG1MP-6" value="验证&lt;br&gt;密码长度" style="rhombus;whiteSpace=wrap;html=1;fillColor=#dae8fc;strokeColor=#6c8ebf;fontSize=18;" vertex="1" parent="sDLEGKdLmnnUkzIvG1MP-1">
          <mxGeometry x="240" y="290" width="110" height="90" as="geometry" />
        </mxCell>
        <mxCell id="sDLEGKdLmnnUkzIvG1MP-7" value="" style="rounded=0;orthogonalLoop=1;jettySize=auto;html=1;fontSize=24;strokeWidth=2;" edge="1" parent="sDLEGKdLmnnUkzIvG1MP-1">
          <mxGeometry relative="1" as="geometry">
            <mxPoint x="190" y="334.5" as="sourcePoint" />
            <mxPoint x="240" y="335" as="targetPoint" />
          </mxGeometry>
        </mxCell>
        <mxCell id="sDLEGKdLmnnUkzIvG1MP-8" value="" style="rounded=0;orthogonalLoop=1;jettySize=auto;html=1;fontSize=24;strokeWidth=2;" edge="1" parent="sDLEGKdLmnnUkzIvG1MP-1">
          <mxGeometry relative="1" as="geometry">
            <mxPoint x="350" y="335.5" as="sourcePoint" />
            <mxPoint x="400" y="336" as="targetPoint" />
          </mxGeometry>
        </mxCell>
        <mxCell id="sDLEGKdLmnnUkzIvG1MP-10" value="" style="rounded=0;orthogonalLoop=1;jettySize=auto;html=1;fontSize=24;strokeWidth=2;" edge="1" parent="sDLEGKdLmnnUkzIvG1MP-1">
          <mxGeometry relative="1" as="geometry">
            <mxPoint x="506" y="335.5" as="sourcePoint" />
            <mxPoint x="556" y="336" as="targetPoint" />
          </mxGeometry>
        </mxCell>
        <mxCell id="sDLEGKdLmnnUkzIvG1MP-11" style="edgeStyle=none;rounded=0;sketch=1;orthogonalLoop=1;jettySize=auto;html=1;exitX=0;exitY=0.5;exitDx=0;exitDy=0;fontSize=18;strokeWidth=2;" edge="1" parent="sDLEGKdLmnnUkzIvG1MP-1">
          <mxGeometry relative="1" as="geometry">
            <mxPoint x="400" y="335" as="sourcePoint" />
            <mxPoint x="400" y="335" as="targetPoint" />
          </mxGeometry>
        </mxCell>
        <mxCell id="QEoChs8wT5TIA2pvLQxw-0" value="" style="rounded=0;orthogonalLoop=1;jettySize=auto;html=1;fontSize=24;strokeWidth=2;" edge="1" parent="sDLEGKdLmnnUkzIvG1MP-1">
          <mxGeometry relative="1" as="geometry">
            <mxPoint x="665" y="334.5" as="sourcePoint" />
            <mxPoint x="715" y="335" as="targetPoint" />
            <Array as="points">
              <mxPoint x="686" y="335" />
            </Array>
          </mxGeometry>
        </mxCell>
        <mxCell id="QEoChs8wT5TIA2pvLQxw-1" value="查询&lt;br&gt;数据库" style="rounded=1;whiteSpace=wrap;html=1;fontSize=18;fillColor=#ffe6cc;strokeColor=#d79b00;" vertex="1" parent="sDLEGKdLmnnUkzIvG1MP-1">
          <mxGeometry x="556" y="410" width="110" height="60" as="geometry" />
        </mxCell>
        <mxCell id="QEoChs8wT5TIA2pvLQxw-2" value="" style="rounded=0;orthogonalLoop=1;jettySize=auto;html=1;fontSize=24;strokeWidth=2;exitX=0.5;exitY=1;exitDx=0;exitDy=0;" edge="1" parent="sDLEGKdLmnnUkzIvG1MP-1">
          <mxGeometry relative="1" as="geometry">
            <mxPoint x="605" y="365" as="sourcePoint" />
            <mxPoint x="605" y="410" as="targetPoint" />
          </mxGeometry>
        </mxCell>
        <mxCell id="QEoChs8wT5TIA2pvLQxw-3" value="" style="rounded=0;orthogonalLoop=1;jettySize=auto;html=1;fontSize=24;strokeWidth=2;entryX=0.5;entryY=1;entryDx=0;entryDy=0;exitX=0.5;exitY=0;exitDx=0;exitDy=0;" edge="1" parent="sDLEGKdLmnnUkzIvG1MP-1" source="sXMGV4K8WxF59cIYdQ64-0" target="QEoChs8wT5TIA2pvLQxw-6">
          <mxGeometry relative="1" as="geometry">
            <mxPoint x="666" y="439.5" as="sourcePoint" />
            <mxPoint x="716" y="440" as="targetPoint" />
          </mxGeometry>
        </mxCell>
        <mxCell id="QEoChs8wT5TIA2pvLQxw-5" value="缓存查询失败" style="text;html=1;strokeColor=none;fillColor=none;align=center;verticalAlign=middle;whiteSpace=wrap;rounded=0;fontSize=16;spacing=2;" vertex="1" parent="sDLEGKdLmnnUkzIvG1MP-1">
          <mxGeometry x="610" y="370" width="110" height="30" as="geometry" />
        </mxCell>
        <mxCell id="QUI_lZ44UKBDEoydIOSQ-1" style="edgeStyle=none;rounded=0;sketch=0;orthogonalLoop=1;jettySize=auto;html=1;exitX=0.5;exitY=0;exitDx=0;exitDy=0;entryX=1;entryY=0.5;entryDx=0;entryDy=0;fontSize=16;strokeWidth=2;" edge="1" parent="sDLEGKdLmnnUkzIvG1MP-1" source="QEoChs8wT5TIA2pvLQxw-6" target="Zv4ebzrEuNpnjDvNv9R5-0">
          <mxGeometry relative="1" as="geometry">
            <Array as="points">
              <mxPoint x="769" y="200" />
            </Array>
          </mxGeometry>
        </mxCell>
        <mxCell id="QEoChs8wT5TIA2pvLQxw-6" value="验证&lt;br&gt;密码" style="rhombus;whiteSpace=wrap;html=1;fillColor=#dae8fc;strokeColor=#6c8ebf;fontSize=18;" vertex="1" parent="sDLEGKdLmnnUkzIvG1MP-1">
          <mxGeometry x="714" y="290" width="110" height="90" as="geometry" />
        </mxCell>
        <mxCell id="QEoChs8wT5TIA2pvLQxw-8" value="保存&lt;br&gt;cookie" style="rounded=1;whiteSpace=wrap;html=1;fontSize=18;fillColor=#ffe6cc;strokeColor=#d79b00;" vertex="1" parent="sDLEGKdLmnnUkzIvG1MP-1">
          <mxGeometry x="873" y="308" width="87" height="60" as="geometry" />
        </mxCell>
        <mxCell id="QEoChs8wT5TIA2pvLQxw-9" value="" style="rounded=0;orthogonalLoop=1;jettySize=auto;html=1;fontSize=24;strokeWidth=2;" edge="1" parent="sDLEGKdLmnnUkzIvG1MP-1">
          <mxGeometry relative="1" as="geometry">
            <mxPoint x="824" y="336.5" as="sourcePoint" />
            <mxPoint x="874" y="337" as="targetPoint" />
          </mxGeometry>
        </mxCell>
        <mxCell id="QEoChs8wT5TIA2pvLQxw-10" value="返回&lt;br&gt;用户信息" style="whiteSpace=wrap;html=1;fontSize=18;fillColor=#ffe6cc;strokeColor=#d79b00;rounded=1;" vertex="1" parent="sDLEGKdLmnnUkzIvG1MP-1">
          <mxGeometry x="1010" y="305" width="102" height="60" as="geometry" />
        </mxCell>
        <mxCell id="QEoChs8wT5TIA2pvLQxw-12" value="" style="rounded=0;orthogonalLoop=1;jettySize=auto;html=1;fontSize=24;strokeWidth=2;" edge="1" parent="sDLEGKdLmnnUkzIvG1MP-1">
          <mxGeometry relative="1" as="geometry">
            <mxPoint x="960" y="336.5" as="sourcePoint" />
            <mxPoint x="1010" y="337" as="targetPoint" />
          </mxGeometry>
        </mxCell>
        <mxCell id="sXMGV4K8WxF59cIYdQ64-0" value="写入&lt;br&gt;缓存" style="rounded=1;whiteSpace=wrap;html=1;fontSize=18;fillColor=#ffe6cc;strokeColor=#d79b00;" vertex="1" parent="sDLEGKdLmnnUkzIvG1MP-1">
          <mxGeometry x="718" y="410" width="102" height="60" as="geometry" />
        </mxCell>
        <mxCell id="sXMGV4K8WxF59cIYdQ64-2" value="" style="rounded=0;orthogonalLoop=1;jettySize=auto;html=1;fontSize=24;strokeWidth=2;" edge="1" parent="sDLEGKdLmnnUkzIvG1MP-1">
          <mxGeometry relative="1" as="geometry">
            <mxPoint x="666" y="439.5" as="sourcePoint" />
            <mxPoint x="716" y="440" as="targetPoint" />
          </mxGeometry>
        </mxCell>
        <mxCell id="Zv4ebzrEuNpnjDvNv9R5-0" value="返回&lt;br&gt;失败信息" style="whiteSpace=wrap;html=1;fontSize=18;fillColor=#ffe6cc;strokeColor=#d79b00;rounded=1;" vertex="1" parent="sDLEGKdLmnnUkzIvG1MP-1">
          <mxGeometry x="401" y="170" width="102" height="60" as="geometry" />
        </mxCell>
      </root>
    </mxGraphModel>
  </diagram>
  <diagram name="3.获取用户信息" id="6yUAjyG2WrHz0PFbX8ef">
    <mxGraphModel dx="1234" dy="651" grid="1" gridSize="10" guides="1" tooltips="1" connect="1" arrows="1" fold="1" page="1" pageScale="1" pageWidth="827" pageHeight="1169" math="0" shadow="0">
      <root>
        <mxCell id="ob5UZULHh4vho1xPsTLZ-0" />
        <mxCell id="ob5UZULHh4vho1xPsTLZ-1" parent="ob5UZULHh4vho1xPsTLZ-0" />
        <mxCell id="ob5UZULHh4vho1xPsTLZ-2" value="查询&lt;br&gt;缓存信息" style="rounded=1;whiteSpace=wrap;html=1;fontSize=18;fillColor=#ffe6cc;strokeColor=#d79b00;" vertex="1" parent="ob5UZULHh4vho1xPsTLZ-1">
          <mxGeometry x="399" y="305" width="110" height="60" as="geometry" />
        </mxCell>
        <mxCell id="ob5UZULHh4vho1xPsTLZ-4" value="获取用户&lt;br style=&quot;font-size: 18px;&quot;&gt;登陆信息" style="rounded=1;whiteSpace=wrap;html=1;fontSize=18;fillColor=#ffe6cc;strokeColor=#d79b00;" vertex="1" parent="ob5UZULHh4vho1xPsTLZ-1">
          <mxGeometry x="70" y="305" width="120" height="60" as="geometry" />
        </mxCell>
        <mxCell id="AdIRfoyOQExGUA7eTkyN-1" style="edgeStyle=none;rounded=0;sketch=0;orthogonalLoop=1;jettySize=auto;html=1;fontSize=16;strokeWidth=2;" edge="1" parent="ob5UZULHh4vho1xPsTLZ-1" source="ob5UZULHh4vho1xPsTLZ-5" target="AdIRfoyOQExGUA7eTkyN-0">
          <mxGeometry relative="1" as="geometry" />
        </mxCell>
        <mxCell id="ob5UZULHh4vho1xPsTLZ-5" value="验证&lt;br&gt;cookie" style="rhombus;whiteSpace=wrap;html=1;fillColor=#dae8fc;strokeColor=#6c8ebf;fontSize=18;" vertex="1" parent="ob5UZULHh4vho1xPsTLZ-1">
          <mxGeometry x="240" y="290" width="110" height="90" as="geometry" />
        </mxCell>
        <mxCell id="ob5UZULHh4vho1xPsTLZ-6" value="" style="rounded=0;orthogonalLoop=1;jettySize=auto;html=1;fontSize=24;strokeWidth=2;" edge="1" parent="ob5UZULHh4vho1xPsTLZ-1">
          <mxGeometry relative="1" as="geometry">
            <mxPoint x="190" y="334.5" as="sourcePoint" />
            <mxPoint x="240" y="335" as="targetPoint" />
          </mxGeometry>
        </mxCell>
        <mxCell id="ob5UZULHh4vho1xPsTLZ-8" value="" style="rounded=0;orthogonalLoop=1;jettySize=auto;html=1;fontSize=24;strokeWidth=2;" edge="1" parent="ob5UZULHh4vho1xPsTLZ-1">
          <mxGeometry relative="1" as="geometry">
            <mxPoint x="350" y="335.5" as="sourcePoint" />
            <mxPoint x="400" y="336" as="targetPoint" />
          </mxGeometry>
        </mxCell>
        <mxCell id="ob5UZULHh4vho1xPsTLZ-11" value="查询&lt;br&gt;数据库" style="rounded=1;whiteSpace=wrap;html=1;fontSize=18;fillColor=#ffe6cc;strokeColor=#d79b00;" vertex="1" parent="ob5UZULHh4vho1xPsTLZ-1">
          <mxGeometry x="400" y="410" width="110" height="60" as="geometry" />
        </mxCell>
        <mxCell id="ob5UZULHh4vho1xPsTLZ-12" value="" style="rounded=0;orthogonalLoop=1;jettySize=auto;html=1;fontSize=24;strokeWidth=2;exitX=0.5;exitY=1;exitDx=0;exitDy=0;" edge="1" parent="ob5UZULHh4vho1xPsTLZ-1">
          <mxGeometry relative="1" as="geometry">
            <mxPoint x="449" y="365" as="sourcePoint" />
            <mxPoint x="449" y="410" as="targetPoint" />
          </mxGeometry>
        </mxCell>
        <mxCell id="ob5UZULHh4vho1xPsTLZ-13" value="" style="rounded=0;orthogonalLoop=1;jettySize=auto;html=1;fontSize=24;strokeWidth=2;exitX=0.5;exitY=0;exitDx=0;exitDy=0;entryX=0.5;entryY=1;entryDx=0;entryDy=0;" edge="1" parent="ob5UZULHh4vho1xPsTLZ-1" target="ob5UZULHh4vho1xPsTLZ-18" source="0aX_GKcjZ_Qa5liiBvii-0">
          <mxGeometry relative="1" as="geometry">
            <mxPoint x="626" y="410" as="sourcePoint" />
            <mxPoint x="626" y="360" as="targetPoint" />
          </mxGeometry>
        </mxCell>
        <mxCell id="ob5UZULHh4vho1xPsTLZ-14" value="缓存查询失败" style="text;html=1;strokeColor=none;fillColor=none;align=center;verticalAlign=middle;whiteSpace=wrap;rounded=0;fontSize=16;spacing=2;" vertex="1" parent="ob5UZULHh4vho1xPsTLZ-1">
          <mxGeometry x="454" y="370" width="110" height="30" as="geometry" />
        </mxCell>
        <mxCell id="ob5UZULHh4vho1xPsTLZ-17" value="" style="rounded=0;orthogonalLoop=1;jettySize=auto;html=1;fontSize=24;strokeWidth=2;entryX=0;entryY=0.5;entryDx=0;entryDy=0;" edge="1" parent="ob5UZULHh4vho1xPsTLZ-1" target="ob5UZULHh4vho1xPsTLZ-18">
          <mxGeometry relative="1" as="geometry">
            <mxPoint x="510" y="334.5" as="sourcePoint" />
            <mxPoint x="560" y="335" as="targetPoint" />
          </mxGeometry>
        </mxCell>
        <mxCell id="ob5UZULHh4vho1xPsTLZ-18" value="返回&lt;br&gt;用户信息" style="whiteSpace=wrap;html=1;fontSize=18;fillColor=#ffe6cc;strokeColor=#d79b00;rounded=1;" vertex="1" parent="ob5UZULHh4vho1xPsTLZ-1">
          <mxGeometry x="580" y="305" width="102" height="60" as="geometry" />
        </mxCell>
        <mxCell id="0aX_GKcjZ_Qa5liiBvii-0" value="写入&lt;br&gt;缓存" style="rounded=1;whiteSpace=wrap;html=1;fontSize=18;fillColor=#ffe6cc;strokeColor=#d79b00;" vertex="1" parent="ob5UZULHh4vho1xPsTLZ-1">
          <mxGeometry x="580" y="410" width="102" height="60" as="geometry" />
        </mxCell>
        <mxCell id="0aX_GKcjZ_Qa5liiBvii-1" value="" style="rounded=0;orthogonalLoop=1;jettySize=auto;html=1;fontSize=24;strokeWidth=2;entryX=0;entryY=0.5;entryDx=0;entryDy=0;" edge="1" parent="ob5UZULHh4vho1xPsTLZ-1" target="0aX_GKcjZ_Qa5liiBvii-0">
          <mxGeometry relative="1" as="geometry">
            <mxPoint x="510" y="440" as="sourcePoint" />
            <mxPoint x="572" y="440.5" as="targetPoint" />
          </mxGeometry>
        </mxCell>
        <mxCell id="AdIRfoyOQExGUA7eTkyN-0" value="返回&lt;br&gt;失败信息" style="whiteSpace=wrap;html=1;fontSize=18;fillColor=#ffe6cc;strokeColor=#d79b00;rounded=1;" vertex="1" parent="ob5UZULHh4vho1xPsTLZ-1">
          <mxGeometry x="244" y="420" width="102" height="60" as="geometry" />
        </mxCell>
      </root>
    </mxGraphModel>
  </diagram>
  <diagram name="4.修改用户信息" id="HvctjKilK_Tbq7UAgYZU">
    <mxGraphModel dx="1234" dy="651" grid="1" gridSize="10" guides="1" tooltips="1" connect="1" arrows="1" fold="1" page="1" pageScale="1" pageWidth="827" pageHeight="1169" math="0" shadow="0">
      <root>
        <mxCell id="R4eSqii8WRKlXFLOa4-l-0" />
        <mxCell id="R4eSqii8WRKlXFLOa4-l-1" parent="R4eSqii8WRKlXFLOa4-l-0" />
        <mxCell id="R4eSqii8WRKlXFLOa4-l-2" value="更新&lt;br&gt;数据库信息" style="rounded=1;whiteSpace=wrap;html=1;fontSize=18;fillColor=#ffe6cc;strokeColor=#d79b00;" vertex="1" parent="R4eSqii8WRKlXFLOa4-l-1">
          <mxGeometry x="399" y="305" width="110" height="60" as="geometry" />
        </mxCell>
        <mxCell id="R4eSqii8WRKlXFLOa4-l-3" value="获取用户&lt;br style=&quot;font-size: 18px;&quot;&gt;登陆信息" style="rounded=1;whiteSpace=wrap;html=1;fontSize=18;fillColor=#ffe6cc;strokeColor=#d79b00;" vertex="1" parent="R4eSqii8WRKlXFLOa4-l-1">
          <mxGeometry x="70" y="305" width="120" height="60" as="geometry" />
        </mxCell>
        <mxCell id="dkfIMh9TRqRu3r1asTzx-1" style="edgeStyle=none;rounded=0;sketch=0;orthogonalLoop=1;jettySize=auto;html=1;entryX=0.5;entryY=0;entryDx=0;entryDy=0;fontSize=16;strokeWidth=2;" edge="1" parent="R4eSqii8WRKlXFLOa4-l-1" source="R4eSqii8WRKlXFLOa4-l-4" target="dkfIMh9TRqRu3r1asTzx-0">
          <mxGeometry relative="1" as="geometry" />
        </mxCell>
        <mxCell id="R4eSqii8WRKlXFLOa4-l-4" value="验证&lt;br&gt;cookie" style="rhombus;whiteSpace=wrap;html=1;fillColor=#dae8fc;strokeColor=#6c8ebf;fontSize=18;" vertex="1" parent="R4eSqii8WRKlXFLOa4-l-1">
          <mxGeometry x="240" y="290" width="110" height="90" as="geometry" />
        </mxCell>
        <mxCell id="R4eSqii8WRKlXFLOa4-l-5" value="" style="rounded=0;orthogonalLoop=1;jettySize=auto;html=1;fontSize=24;strokeWidth=2;" edge="1" parent="R4eSqii8WRKlXFLOa4-l-1">
          <mxGeometry relative="1" as="geometry">
            <mxPoint x="190" y="334.5" as="sourcePoint" />
            <mxPoint x="240" y="335" as="targetPoint" />
          </mxGeometry>
        </mxCell>
        <mxCell id="R4eSqii8WRKlXFLOa4-l-6" value="" style="rounded=0;orthogonalLoop=1;jettySize=auto;html=1;fontSize=24;strokeWidth=2;" edge="1" parent="R4eSqii8WRKlXFLOa4-l-1">
          <mxGeometry relative="1" as="geometry">
            <mxPoint x="350" y="335.5" as="sourcePoint" />
            <mxPoint x="400" y="336" as="targetPoint" />
          </mxGeometry>
        </mxCell>
        <mxCell id="R4eSqii8WRKlXFLOa4-l-7" value="删除&lt;br&gt;缓存信息" style="rounded=1;whiteSpace=wrap;html=1;fontSize=18;fillColor=#ffe6cc;strokeColor=#d79b00;" vertex="1" parent="R4eSqii8WRKlXFLOa4-l-1">
          <mxGeometry x="570" y="305" width="110" height="60" as="geometry" />
        </mxCell>
        <mxCell id="R4eSqii8WRKlXFLOa4-l-8" value="" style="rounded=0;orthogonalLoop=1;jettySize=auto;html=1;fontSize=24;strokeWidth=2;exitX=1;exitY=0.5;exitDx=0;exitDy=0;entryX=0;entryY=0.5;entryDx=0;entryDy=0;" edge="1" parent="R4eSqii8WRKlXFLOa4-l-1" target="R4eSqii8WRKlXFLOa4-l-7" source="R4eSqii8WRKlXFLOa4-l-2">
          <mxGeometry relative="1" as="geometry">
            <mxPoint x="449" y="365" as="sourcePoint" />
            <mxPoint x="449" y="410" as="targetPoint" />
          </mxGeometry>
        </mxCell>
        <mxCell id="R4eSqii8WRKlXFLOa4-l-11" value="" style="rounded=0;orthogonalLoop=1;jettySize=auto;html=1;fontSize=24;strokeWidth=2;entryX=0;entryY=0.5;entryDx=0;entryDy=0;" edge="1" parent="R4eSqii8WRKlXFLOa4-l-1" target="R4eSqii8WRKlXFLOa4-l-12">
          <mxGeometry relative="1" as="geometry">
            <mxPoint x="680" y="335" as="sourcePoint" />
            <mxPoint x="720" y="335" as="targetPoint" />
          </mxGeometry>
        </mxCell>
        <mxCell id="R4eSqii8WRKlXFLOa4-l-12" value="返回&lt;br&gt;修改结果" style="whiteSpace=wrap;html=1;fontSize=18;fillColor=#ffe6cc;strokeColor=#d79b00;rounded=1;" vertex="1" parent="R4eSqii8WRKlXFLOa4-l-1">
          <mxGeometry x="740" y="305" width="102" height="60" as="geometry" />
        </mxCell>
        <mxCell id="dkfIMh9TRqRu3r1asTzx-0" value="返回&lt;br&gt;失败信息" style="whiteSpace=wrap;html=1;fontSize=18;fillColor=#ffe6cc;strokeColor=#d79b00;rounded=1;" vertex="1" parent="R4eSqii8WRKlXFLOa4-l-1">
          <mxGeometry x="244" y="420" width="102" height="60" as="geometry" />
        </mxCell>
      </root>
    </mxGraphModel>
  </diagram>
  <diagram name="5. 上传图片" id="HfMT2wDqDz7tSNV6Y2st">
    <mxGraphModel dx="1234" dy="651" grid="1" gridSize="10" guides="1" tooltips="1" connect="1" arrows="1" fold="1" page="1" pageScale="1" pageWidth="827" pageHeight="1169" math="0" shadow="0">
      <root>
        <mxCell id="Eg_RS4SYgpDjI-3AT2Pv-0" />
        <mxCell id="Eg_RS4SYgpDjI-3AT2Pv-1" parent="Eg_RS4SYgpDjI-3AT2Pv-0" />
        <mxCell id="Eg_RS4SYgpDjI-3AT2Pv-2" value="上传到&lt;br&gt;临时目录" style="rounded=1;whiteSpace=wrap;html=1;fontSize=18;fillColor=#ffe6cc;strokeColor=#d79b00;" vertex="1" parent="Eg_RS4SYgpDjI-3AT2Pv-1">
          <mxGeometry x="399" y="305" width="110" height="60" as="geometry" />
        </mxCell>
        <mxCell id="Eg_RS4SYgpDjI-3AT2Pv-3" value="获取用户&lt;br style=&quot;font-size: 18px;&quot;&gt;登陆信息" style="rounded=1;whiteSpace=wrap;html=1;fontSize=18;fillColor=#ffe6cc;strokeColor=#d79b00;" vertex="1" parent="Eg_RS4SYgpDjI-3AT2Pv-1">
          <mxGeometry x="70" y="305" width="120" height="60" as="geometry" />
        </mxCell>
        <mxCell id="Eg_RS4SYgpDjI-3AT2Pv-4" style="edgeStyle=none;rounded=0;sketch=0;orthogonalLoop=1;jettySize=auto;html=1;entryX=0.5;entryY=0;entryDx=0;entryDy=0;fontSize=16;strokeWidth=2;" edge="1" parent="Eg_RS4SYgpDjI-3AT2Pv-1" source="Eg_RS4SYgpDjI-3AT2Pv-5" target="Eg_RS4SYgpDjI-3AT2Pv-12">
          <mxGeometry relative="1" as="geometry" />
        </mxCell>
        <mxCell id="Eg_RS4SYgpDjI-3AT2Pv-5" value="验证&lt;br&gt;cookie" style="rhombus;whiteSpace=wrap;html=1;fillColor=#dae8fc;strokeColor=#6c8ebf;fontSize=18;" vertex="1" parent="Eg_RS4SYgpDjI-3AT2Pv-1">
          <mxGeometry x="240" y="290" width="110" height="90" as="geometry" />
        </mxCell>
        <mxCell id="Eg_RS4SYgpDjI-3AT2Pv-6" value="" style="rounded=0;orthogonalLoop=1;jettySize=auto;html=1;fontSize=24;strokeWidth=2;" edge="1" parent="Eg_RS4SYgpDjI-3AT2Pv-1">
          <mxGeometry relative="1" as="geometry">
            <mxPoint x="190" y="334.5" as="sourcePoint" />
            <mxPoint x="240" y="335" as="targetPoint" />
          </mxGeometry>
        </mxCell>
        <mxCell id="Eg_RS4SYgpDjI-3AT2Pv-7" value="" style="rounded=0;orthogonalLoop=1;jettySize=auto;html=1;fontSize=24;strokeWidth=2;" edge="1" parent="Eg_RS4SYgpDjI-3AT2Pv-1">
          <mxGeometry relative="1" as="geometry">
            <mxPoint x="350" y="335.5" as="sourcePoint" />
            <mxPoint x="400" y="336" as="targetPoint" />
          </mxGeometry>
        </mxCell>
        <mxCell id="Eg_RS4SYgpDjI-3AT2Pv-8" value="推送到S3" style="rounded=1;whiteSpace=wrap;html=1;fontSize=18;fillColor=#ffe6cc;strokeColor=#d79b00;" vertex="1" parent="Eg_RS4SYgpDjI-3AT2Pv-1">
          <mxGeometry x="570" y="305" width="110" height="60" as="geometry" />
        </mxCell>
        <mxCell id="Eg_RS4SYgpDjI-3AT2Pv-9" value="" style="rounded=0;orthogonalLoop=1;jettySize=auto;html=1;fontSize=24;strokeWidth=2;exitX=1;exitY=0.5;exitDx=0;exitDy=0;entryX=0;entryY=0.5;entryDx=0;entryDy=0;" edge="1" parent="Eg_RS4SYgpDjI-3AT2Pv-1" source="Eg_RS4SYgpDjI-3AT2Pv-2" target="Eg_RS4SYgpDjI-3AT2Pv-8">
          <mxGeometry relative="1" as="geometry">
            <mxPoint x="449" y="365" as="sourcePoint" />
            <mxPoint x="449" y="410" as="targetPoint" />
          </mxGeometry>
        </mxCell>
        <mxCell id="Eg_RS4SYgpDjI-3AT2Pv-10" value="" style="rounded=0;orthogonalLoop=1;jettySize=auto;html=1;fontSize=24;strokeWidth=2;entryX=0;entryY=0.5;entryDx=0;entryDy=0;" edge="1" parent="Eg_RS4SYgpDjI-3AT2Pv-1" target="Eg_RS4SYgpDjI-3AT2Pv-11">
          <mxGeometry relative="1" as="geometry">
            <mxPoint x="680" y="335" as="sourcePoint" />
            <mxPoint x="720" y="335" as="targetPoint" />
          </mxGeometry>
        </mxCell>
        <mxCell id="Eg_RS4SYgpDjI-3AT2Pv-11" value="返回&lt;br&gt;结果" style="whiteSpace=wrap;html=1;fontSize=18;fillColor=#ffe6cc;strokeColor=#d79b00;rounded=1;" vertex="1" parent="Eg_RS4SYgpDjI-3AT2Pv-1">
          <mxGeometry x="740" y="305" width="102" height="60" as="geometry" />
        </mxCell>
        <mxCell id="Eg_RS4SYgpDjI-3AT2Pv-12" value="返回&lt;br&gt;失败信息" style="whiteSpace=wrap;html=1;fontSize=18;fillColor=#ffe6cc;strokeColor=#d79b00;rounded=1;" vertex="1" parent="Eg_RS4SYgpDjI-3AT2Pv-1">
          <mxGeometry x="244" y="420" width="102" height="60" as="geometry" />
        </mxCell>
      </root>
    </mxGraphModel>
  </diagram>
  <diagram name="6. 下载图片" id="0mgjRR3x8cAYjd-llPmV">
    <mxGraphModel dx="1234" dy="651" grid="1" gridSize="10" guides="1" tooltips="1" connect="1" arrows="1" fold="1" page="1" pageScale="1" pageWidth="827" pageHeight="1169" math="0" shadow="0">
      <root>
        <mxCell id="emO3KAKuXpxUYzn984Ix-0" />
        <mxCell id="emO3KAKuXpxUYzn984Ix-1" parent="emO3KAKuXpxUYzn984Ix-0" />
        <mxCell id="emO3KAKuXpxUYzn984Ix-2" value="拉取&lt;br&gt;S3图片" style="rounded=1;whiteSpace=wrap;html=1;fontSize=18;fillColor=#ffe6cc;strokeColor=#d79b00;" vertex="1" parent="emO3KAKuXpxUYzn984Ix-1">
          <mxGeometry x="399" y="305" width="110" height="60" as="geometry" />
        </mxCell>
        <mxCell id="emO3KAKuXpxUYzn984Ix-3" value="获取用户&lt;br style=&quot;font-size: 18px;&quot;&gt;登陆信息" style="rounded=1;whiteSpace=wrap;html=1;fontSize=18;fillColor=#ffe6cc;strokeColor=#d79b00;" vertex="1" parent="emO3KAKuXpxUYzn984Ix-1">
          <mxGeometry x="70" y="305" width="120" height="60" as="geometry" />
        </mxCell>
        <mxCell id="emO3KAKuXpxUYzn984Ix-4" style="edgeStyle=none;rounded=0;sketch=0;orthogonalLoop=1;jettySize=auto;html=1;entryX=0.5;entryY=0;entryDx=0;entryDy=0;fontSize=16;strokeWidth=2;" edge="1" parent="emO3KAKuXpxUYzn984Ix-1" source="emO3KAKuXpxUYzn984Ix-5" target="emO3KAKuXpxUYzn984Ix-12">
          <mxGeometry relative="1" as="geometry" />
        </mxCell>
        <mxCell id="emO3KAKuXpxUYzn984Ix-5" value="验证&lt;br&gt;cookie" style="rhombus;whiteSpace=wrap;html=1;fillColor=#dae8fc;strokeColor=#6c8ebf;fontSize=18;" vertex="1" parent="emO3KAKuXpxUYzn984Ix-1">
          <mxGeometry x="240" y="290" width="110" height="90" as="geometry" />
        </mxCell>
        <mxCell id="emO3KAKuXpxUYzn984Ix-6" value="" style="rounded=0;orthogonalLoop=1;jettySize=auto;html=1;fontSize=24;strokeWidth=2;" edge="1" parent="emO3KAKuXpxUYzn984Ix-1">
          <mxGeometry relative="1" as="geometry">
            <mxPoint x="190" y="334.5" as="sourcePoint" />
            <mxPoint x="240" y="335" as="targetPoint" />
          </mxGeometry>
        </mxCell>
        <mxCell id="emO3KAKuXpxUYzn984Ix-7" value="" style="rounded=0;orthogonalLoop=1;jettySize=auto;html=1;fontSize=24;strokeWidth=2;" edge="1" parent="emO3KAKuXpxUYzn984Ix-1">
          <mxGeometry relative="1" as="geometry">
            <mxPoint x="350" y="335.5" as="sourcePoint" />
            <mxPoint x="400" y="336" as="targetPoint" />
          </mxGeometry>
        </mxCell>
        <mxCell id="emO3KAKuXpxUYzn984Ix-8" value="推送客户端" style="rounded=1;whiteSpace=wrap;html=1;fontSize=18;fillColor=#ffe6cc;strokeColor=#d79b00;" vertex="1" parent="emO3KAKuXpxUYzn984Ix-1">
          <mxGeometry x="570" y="305" width="110" height="60" as="geometry" />
        </mxCell>
        <mxCell id="emO3KAKuXpxUYzn984Ix-9" value="" style="rounded=0;orthogonalLoop=1;jettySize=auto;html=1;fontSize=24;strokeWidth=2;exitX=1;exitY=0.5;exitDx=0;exitDy=0;entryX=0;entryY=0.5;entryDx=0;entryDy=0;" edge="1" parent="emO3KAKuXpxUYzn984Ix-1" source="emO3KAKuXpxUYzn984Ix-2" target="emO3KAKuXpxUYzn984Ix-8">
          <mxGeometry relative="1" as="geometry">
            <mxPoint x="449" y="365" as="sourcePoint" />
            <mxPoint x="449" y="410" as="targetPoint" />
          </mxGeometry>
        </mxCell>
        <mxCell id="emO3KAKuXpxUYzn984Ix-12" value="返回&lt;br&gt;失败信息" style="whiteSpace=wrap;html=1;fontSize=18;fillColor=#ffe6cc;strokeColor=#d79b00;rounded=1;" vertex="1" parent="emO3KAKuXpxUYzn984Ix-1">
          <mxGeometry x="244" y="420" width="102" height="60" as="geometry" />
        </mxCell>
      </root>
    </mxGraphModel>
  </diagram>
  <diagram name="7.登出" id="2Gd1tbekz4uy19lVONXB">
    <mxGraphModel dx="1234" dy="651" grid="1" gridSize="10" guides="1" tooltips="1" connect="1" arrows="1" fold="1" page="1" pageScale="1" pageWidth="827" pageHeight="1169" math="0" shadow="0">
      <root>
        <mxCell id="YAPuN_qXGXW7QLWm5ifo-0" />
        <mxCell id="YAPuN_qXGXW7QLWm5ifo-1" parent="YAPuN_qXGXW7QLWm5ifo-0" />
        <mxCell id="YAPuN_qXGXW7QLWm5ifo-3" value="获取用户&lt;br style=&quot;font-size: 18px;&quot;&gt;登陆信息" style="rounded=1;whiteSpace=wrap;html=1;fontSize=18;fillColor=#ffe6cc;strokeColor=#d79b00;" vertex="1" parent="YAPuN_qXGXW7QLWm5ifo-1">
          <mxGeometry x="70" y="305" width="120" height="60" as="geometry" />
        </mxCell>
        <mxCell id="R5fuKn23JgjiF5B2YZw1-1" value="" style="edgeStyle=none;rounded=0;sketch=0;orthogonalLoop=1;jettySize=auto;html=1;fontSize=16;strokeWidth=2;" edge="1" parent="YAPuN_qXGXW7QLWm5ifo-1" source="YAPuN_qXGXW7QLWm5ifo-4" target="R5fuKn23JgjiF5B2YZw1-0">
          <mxGeometry relative="1" as="geometry" />
        </mxCell>
        <mxCell id="YAPuN_qXGXW7QLWm5ifo-4" value="验证&lt;br&gt;cookie" style="rhombus;whiteSpace=wrap;html=1;fillColor=#dae8fc;strokeColor=#6c8ebf;fontSize=18;" vertex="1" parent="YAPuN_qXGXW7QLWm5ifo-1">
          <mxGeometry x="240" y="290" width="110" height="90" as="geometry" />
        </mxCell>
        <mxCell id="YAPuN_qXGXW7QLWm5ifo-5" value="" style="rounded=0;orthogonalLoop=1;jettySize=auto;html=1;fontSize=24;strokeWidth=2;" edge="1" parent="YAPuN_qXGXW7QLWm5ifo-1">
          <mxGeometry relative="1" as="geometry">
            <mxPoint x="190" y="334.5" as="sourcePoint" />
            <mxPoint x="240" y="335" as="targetPoint" />
          </mxGeometry>
        </mxCell>
        <mxCell id="YAPuN_qXGXW7QLWm5ifo-6" value="" style="rounded=0;orthogonalLoop=1;jettySize=auto;html=1;fontSize=24;strokeWidth=2;" edge="1" parent="YAPuN_qXGXW7QLWm5ifo-1">
          <mxGeometry relative="1" as="geometry">
            <mxPoint x="350" y="335.5" as="sourcePoint" />
            <mxPoint x="400" y="336" as="targetPoint" />
          </mxGeometry>
        </mxCell>
        <mxCell id="YAPuN_qXGXW7QLWm5ifo-10" value="设置&lt;br&gt;cookie过期" style="whiteSpace=wrap;html=1;fontSize=18;fillColor=#ffe6cc;strokeColor=#d79b00;rounded=1;" vertex="1" parent="YAPuN_qXGXW7QLWm5ifo-1">
          <mxGeometry x="400" y="305" width="102" height="60" as="geometry" />
        </mxCell>
        <mxCell id="R5fuKn23JgjiF5B2YZw1-0" value="返回&lt;br&gt;失败信息" style="whiteSpace=wrap;html=1;fontSize=18;fillColor=#ffe6cc;strokeColor=#d79b00;rounded=1;" vertex="1" parent="YAPuN_qXGXW7QLWm5ifo-1">
          <mxGeometry x="244" y="420" width="102" height="60" as="geometry" />
        </mxCell>
        <mxCell id="evkrlGQQIihbLfT5izLI-0" value="" style="rounded=0;orthogonalLoop=1;jettySize=auto;html=1;fontSize=24;strokeWidth=2;" edge="1" parent="YAPuN_qXGXW7QLWm5ifo-1">
          <mxGeometry relative="1" as="geometry">
            <mxPoint x="502" y="335.5" as="sourcePoint" />
            <mxPoint x="552" y="336" as="targetPoint" />
          </mxGeometry>
        </mxCell>
        <mxCell id="evkrlGQQIihbLfT5izLI-1" value="返回&lt;br&gt;结果" style="whiteSpace=wrap;html=1;fontSize=18;fillColor=#ffe6cc;strokeColor=#d79b00;rounded=1;" vertex="1" parent="YAPuN_qXGXW7QLWm5ifo-1">
          <mxGeometry x="552" y="305" width="102" height="60" as="geometry" />
        </mxCell>
      </root>
    </mxGraphModel>
  </diagram>
  <diagram id="MdLu5L2-dIhtmaJoq-pl" name="架构">
    <mxGraphModel dx="1234" dy="651" grid="1" gridSize="10" guides="1" tooltips="1" connect="1" arrows="1" fold="1" page="1" pageScale="1" pageWidth="827" pageHeight="1169" math="0" shadow="0">
      <root>
        <mxCell id="0" />
        <mxCell id="1" parent="0" />
        <mxCell id="7weFL3TchnFO9tk0yOVx-1" value="&amp;nbsp;负载均衡：" style="rounded=1;whiteSpace=wrap;html=1;fontSize=16;fillColor=#d5e8d4;strokeColor=#82b366;align=left;" vertex="1" parent="1">
          <mxGeometry x="280" y="230" width="420" height="60" as="geometry" />
        </mxCell>
        <mxCell id="7weFL3TchnFO9tk0yOVx-2" value="&amp;nbsp;逻辑层：" style="rounded=1;whiteSpace=wrap;html=1;fontSize=16;fillColor=#dae8fc;strokeColor=#6c8ebf;align=left;" vertex="1" parent="1">
          <mxGeometry x="280" y="300" width="420" height="60" as="geometry" />
        </mxCell>
        <mxCell id="7weFL3TchnFO9tk0yOVx-3" value="&amp;nbsp;存储层：" style="rounded=1;whiteSpace=wrap;html=1;fontSize=16;fillColor=#f8cecc;strokeColor=#b85450;align=left;" vertex="1" parent="1">
          <mxGeometry x="280" y="370" width="420" height="60" as="geometry" />
        </mxCell>
        <mxCell id="7weFL3TchnFO9tk0yOVx-4" value="&lt;span style=&quot;&quot;&gt;WebServer&lt;/span&gt;" style="rounded=1;whiteSpace=wrap;html=1;fontSize=20;fillColor=#fff2cc;strokeColor=#d6b656;" vertex="1" parent="1">
          <mxGeometry x="430" y="305" width="110" height="50" as="geometry" />
        </mxCell>
        <mxCell id="7weFL3TchnFO9tk0yOVx-5" value="MySQL" style="rounded=1;whiteSpace=wrap;html=1;fontSize=20;fillColor=#ffe6cc;strokeColor=#d79b00;" vertex="1" parent="1">
          <mxGeometry x="354" y="375" width="96" height="50" as="geometry" />
        </mxCell>
        <mxCell id="7weFL3TchnFO9tk0yOVx-6" value="&lt;span style=&quot;&quot;&gt;S3&lt;/span&gt;" style="rounded=1;whiteSpace=wrap;html=1;fontSize=20;fillColor=#ffe6cc;strokeColor=#d79b00;" vertex="1" parent="1">
          <mxGeometry x="580" y="376" width="90" height="50" as="geometry" />
        </mxCell>
        <mxCell id="7weFL3TchnFO9tk0yOVx-7" value="Redis" style="rounded=1;whiteSpace=wrap;html=1;fontSize=20;fillColor=#ffe6cc;strokeColor=#d79b00;" vertex="1" parent="1">
          <mxGeometry x="470" y="376" width="90" height="50" as="geometry" />
        </mxCell>
        <mxCell id="7weFL3TchnFO9tk0yOVx-8" value="&lt;span style=&quot;&quot;&gt;ALB&lt;/span&gt;" style="rounded=1;whiteSpace=wrap;html=1;fontSize=20;fillColor=#fff2cc;strokeColor=#d6b656;" vertex="1" parent="1">
          <mxGeometry x="445" y="235" width="80" height="50" as="geometry" />
        </mxCell>
        <mxCell id="7weFL3TchnFO9tk0yOVx-9" value="平台：&lt;br&gt;gitlab&lt;br&gt;jenkins&lt;br&gt;L&lt;br&gt;&lt;br&gt;&lt;br&gt;" style="rounded=1;whiteSpace=wrap;html=1;fontSize=20;fillColor=#e1d5e7;strokeColor=#9673a6;" vertex="1" parent="1">
          <mxGeometry x="707" y="230" width="120" height="200" as="geometry" />
        </mxCell>
      </root>
    </mxGraphModel>
  </diagram>
  <diagram id="FIOAJgq1sLVzdibyZwi1" name="DevOps">
    <mxGraphModel dx="881" dy="465" grid="1" gridSize="10" guides="1" tooltips="1" connect="1" arrows="1" fold="1" page="1" pageScale="1" pageWidth="827" pageHeight="1169" math="0" shadow="0">
      <root>
        <mxCell id="0" />
        <mxCell id="1" parent="0" />
      </root>
    </mxGraphModel>
  </diagram>
</mxfile>
